<svg xmlns="http://www.w3.org/2000/svg" viewBox="0 0 512 512" width="512" height="512">
	<style>
		tspan { white-space:pre }
		.shp0 { fill: none;stroke: #ffffff;stroke-width: 25 } 
		.shp1 { fill: none;stroke: #ffffff;stroke-width: 15 } 
	</style>
	<g id="Background">
		<path id="Forma 1" class="shp0" d="M457.55 372.61L256.56 488.65L55.57 372.61L55.57 140.52L256.56 24.47L457.55 140.52L457.55 372.61Z" />
		<path id="Forma 2" class="shp1" d="M256.5 388C183.78 388 125 329.22 125 256.5C125 183.78 183.78 125 256.5 125C329.22 125 388 183.78 388 256.5C388 329.22 329.22 388 256.5 388Z" />
	</g>
	<path id="LM " fill="#ffffff" d="M228.01 282.25L228.01 295L171.97 295L171.97 217.2L190.41 217.2L190.41 282.25L228.01 282.25ZM319.01 262.42L317.9 253.2Q316.48 241.58 315.74 237.08Q315 239.7 312.29 248.17Q309.58 256.58 307.42 262.42L295.64 292.48L279.37 292.48L267.78 262.42Q264.14 252.99 260.57 240.77L259.33 237.08L256 262.42L251.63 295L233.44 295L244.91 217.2L266.73 217.2L279.74 251.11Q282.39 258.67 283.81 263.17Q286.09 270.73 287.57 274.37Q289.11 270.73 291.39 263.17Q292.81 258.67 295.4 251.11L308.41 217.2L330.11 217.2L341.76 295L323.57 295L319.01 262.42Z" />
</svg>